<svg viewBox="0 0 128 128" xmlns="http://www.w3.org/2000/svg"><g><path d="m121.5 4.75h-115a1.749 1.749 0 0 0 -1.75 1.75v87.833a1.749 1.749 0 0 0 1.75 1.75h46.37v14.667h-3.776a10.762 10.762 0 0 0 -10.75 10.75 1.749 1.749 0 0 0 1.75 1.75h47.812a1.749 1.749 0 0 0 1.75-1.75 10.762 10.762 0 0 0 -10.75-10.75h-3.776v-14.667h46.37a1.749 1.749 0 0 0 1.75-1.75v-87.833a1.749 1.749 0 0 0 -1.75-1.75zm-1.75 3.5v69.5h-111.5v-69.5zm-33.808 111.5h-43.884a7.261 7.261 0 0 1 7.036-5.5h29.812a7.261 7.261 0 0 1 7.036 5.5zm-14.312-9h-15.26v-14.667h15.26zm1.779-18.167c-.01 0-.019 0-.029 0s-.019 0-.029 0h-18.7c-.01 0-.019 0-.029 0s-.019 0-.029 0h-46.343v-11.333h111.5v11.333z"/><path d="m115.5 41.583a1.749 1.749 0 0 0 1.75-1.75v-14.333a1.75 1.75 0 0 0 -3.5 0v14.333a1.749 1.749 0 0 0 1.75 1.75z"/><path d="m70 85.167h-12a1.75 1.75 0 0 0 0 3.5h12a1.75 1.75 0 0 0 0-3.5z"/></g></svg>