<svg id="Layer_1" data-name="Layer 1" xmlns="http://www.w3.org/2000/svg" viewBox="0 0 2454.39 357.86"><defs><style>.cls-1{fill:#333;}.cls-2{fill:#ff5a00;}</style></defs><title>im-logo-wide</title><g id="_Group_" data-name="&lt;Group&gt;"><polygon class="cls-1" points="138.12 309.04 138.12 342.49 69.03 342.49 69.03 130.46 0 130.46 0 96.76 110.01 96.76 110.01 309.04 138.12 309.04"/><polygon class="cls-1" points="469.19 96.76 469.19 342.49 425.53 342.49 425.53 166.77 317.71 304.13 209.45 166.91 209.45 342.49 138.12 342.49 138.12 309.04 166.24 309.04 166.24 96.76 201.96 96.76 317.49 242.01 433.11 96.76 469.19 96.76"/></g><path class="cls-2" d="M618.67,305.59H600a20.48,20.48,0,0,1-.24-2.87V300.8q0-12,5.27-18.31a29,29,0,0,1,14.12-9.1,76.82,76.82,0,0,1,20.34-3.11q11.49-.36,23.93-.36,10.05,0,18.91-.12a120.35,120.35,0,0,1,16.51.84,55.5,55.5,0,0,1,14.12,3.6,34.81,34.81,0,0,1,12,8.4,31.47,31.47,0,0,1,6.34,8.64,32.67,32.67,0,0,1,2.75,9.35,68.87,68.87,0,0,1,.6,11q-.12,6-.12,13.68v59.94h-18l.48-13.4h-1a37.69,37.69,0,0,1-9.69,9.57,31.72,31.72,0,0,1-11,4.31,65.89,65.89,0,0,1-13.64,1.08q-7.54-.12-17.35-.12t-18.19.36q-8.38.36-15.56,0a63.85,63.85,0,0,1-13.4-2,34.76,34.76,0,0,1-11.73-5.74A22.52,22.52,0,0,1,597.25,369Q595,363,595,352.26q0-13.16,3.47-20.1t11.85-10.53q4.78-1.91,15.2-3t27.4-1.08q11.25,0,20.7-.48a119.91,119.91,0,0,1,17.11.24,43.12,43.12,0,0,1,13.76,3.47,27,27,0,0,1,10.65,9h1.44V317.55q0-15.43-5.27-21.71-4.79-6-14.6-8.08t-31.83-2q-9.33,0-17.71-.12a63.09,63.09,0,0,0-14.72,1.32,19.64,19.64,0,0,0-10.05,5.27q-3.71,3.83-3.71,12Zm46,27.76q-14.36,0-24.77-.6A33.13,33.13,0,0,0,621.07,337q-6.94,4.09-6.94,15.66,0,11.32,8.14,14.93,6.7,3.38,46,3.37h17.47a71.71,71.71,0,0,0,15.08-1.44,20.8,20.8,0,0,0,10.65-5.42q3.95-4,3.95-11.93t-4.55-11.92A25,25,0,0,0,699,334.8a84.69,84.69,0,0,0-16.39-1.45ZM880.75,286.2l-.48-14.36h18.19v84.85q0,13.66-.84,23.86t-2,16.9a32.64,32.64,0,0,1-13.4,21.1,46.86,46.86,0,0,1-12.8,6.35,64.84,64.84,0,0,1-13.88,2.64,143.82,143.82,0,0,1-15.68.36q-8.38-.24-18-.24h-19a98.31,98.31,0,0,1-17.35-1.46,53.54,53.54,0,0,1-14.84-4.86,31.44,31.44,0,0,1-11.49-10.2,22.06,22.06,0,0,1-4.31-8.38,55.93,55.93,0,0,1-1-12h18.19a28.77,28.77,0,0,0,2.51,9.69,14.51,14.51,0,0,0,6.1,5.86q9.57,5.5,39.25,5.5,25.37,0,37.1-2.15t16.28-8.14a34.19,34.19,0,0,0,4.31-7.3,28.39,28.39,0,0,0,1.91-7.54,77.45,77.45,0,0,0,.48-9q0-4.9.24-11.37h-1.2A39.94,39.94,0,0,1,868.43,376a35,35,0,0,1-12,4.19,82,82,0,0,1-14.48,1q-7.9-.12-18.19-.12-23,0-35.66-2t-19.39-6.82a40,40,0,0,1-13.64-18.07q-4.31-11.13-4.31-28.6,0-38.06,23.22-48.83,7.42-3.59,19.15-4.91t34.23-1.32q6.94,0,12.45-.12t10.17.24a56.92,56.92,0,0,1,9.09,1.44,37.88,37.88,0,0,1,9.21,3.71,30.81,30.81,0,0,1,11.25,10.53Zm-53.37,0a269.62,269.62,0,0,0-27.76,1.2q-11.25,1.2-16.51,4.07-13.17,6.94-13.16,34.47,0,27.77,15.08,34.94,8.62,4.31,40,4.31,33.75,0,43.08-5.74A23.05,23.05,0,0,0,877.52,347q2.75-8.13,2.75-23,0-14.6-3.23-21.9A22.38,22.38,0,0,0,866.15,291q-5-2.39-14.6-3.59A201.24,201.24,0,0,0,827.38,286.2Zm91.43-43.08V222.06H937v21.06Zm0,142.17V271.84H937V385.29Zm38.51,0V271.84h18v17h1.44a29.23,29.23,0,0,1,9.57-11.25,39.07,39.07,0,0,1,13-5.5,71.83,71.83,0,0,1,16-1.68h34.94a96.06,96.06,0,0,1,14.72,1.08,53.06,53.06,0,0,1,12.8,3.59,33.19,33.19,0,0,1,10.89,7.78,29.86,29.86,0,0,1,7.3,13.88q2,8.38,2,24.41v64.14h-18V328.8q0-15.31-1.2-21.9a23.47,23.47,0,0,0-5-11.13q-4.79-5.26-14.12-7.42t-28-2.15q-20.82,0-32.43,3T982,299.12a31.13,31.13,0,0,0-4.55,7.18,26.47,26.47,0,0,0-1.91,7.18,55.27,55.27,0,0,0-.36,8.38q.12,4.55.12,10.77v52.65Zm179-79.7h-18.67a20.52,20.52,0,0,1-.24-2.87V300.8q0-12,5.26-18.31a29,29,0,0,1,14.12-9.1,76.82,76.82,0,0,1,20.34-3.11q11.49-.36,23.93-.36,10.05,0,18.91-.12a120.34,120.34,0,0,1,16.52.84,55.5,55.5,0,0,1,14.12,3.6,34.79,34.79,0,0,1,12,8.4,31.46,31.46,0,0,1,6.34,8.64,32.69,32.69,0,0,1,2.75,9.35,68.64,68.64,0,0,1,.6,11q-.12,6-.12,13.68v59.94h-18l.48-13.4h-1a37.71,37.71,0,0,1-9.69,9.57,31.73,31.73,0,0,1-11,4.31,65.89,65.89,0,0,1-13.64,1.08q-7.54-.12-17.35-.12t-18.19.36q-8.38.36-15.56,0a63.85,63.85,0,0,1-13.4-2,34.76,34.76,0,0,1-11.73-5.74,22.52,22.52,0,0,1-8.26-10.29q-2.28-6-2.27-16.75,0-13.16,3.47-20.1T1128,321.62q4.78-1.91,15.2-3t27.4-1.08q11.25,0,20.7-.48a119.89,119.89,0,0,1,17.11.24,43.11,43.11,0,0,1,13.76,3.47,27,27,0,0,1,10.65,9h1.44V317.55q0-15.43-5.27-21.71-4.79-6-14.6-8.08t-31.83-2q-9.33,0-17.71-.12a63.09,63.09,0,0,0-14.72,1.32,19.64,19.64,0,0,0-10.05,5.27q-3.71,3.83-3.71,12Zm46,27.76q-14.36,0-24.77-.6a33.12,33.12,0,0,0-18.79,4.21q-6.94,4.09-6.94,15.66,0,11.32,8.14,14.93,6.7,3.38,46,3.37h17.47a71.72,71.72,0,0,0,15.08-1.44,20.81,20.81,0,0,0,10.65-5.42q3.95-4,3.95-11.93t-4.55-11.92a25,25,0,0,0-11.85-5.42,84.69,84.69,0,0,0-16.39-1.45Zm105.79-61.51V243.6h18v28.24h79.46v15.32h-79.46v49.3q0,5.74-.12,9.57a58.48,58.48,0,0,0,.12,6.7,18,18,0,0,0,1.2,5.27,23.58,23.58,0,0,0,3.11,5.27q3.35,4.07,10.05,5.86t19.63,1.8q12,0,17.71-1.68a14.92,14.92,0,0,0,8.62-6,20.52,20.52,0,0,0,2.63-7.54,101.73,101.73,0,0,0,.72-14.48v-7.18h17.71v7.18q0,12.92-1.32,19.63a34.44,34.44,0,0,1-4.67,12q-5,7.42-15,10.65t-27.88,3.23q-18.43,0-28.72-3.11t-15.32-9.81a27.83,27.83,0,0,1-5.15-11.61q-1.32-6.58-1.32-20v-55h-28V271.84Zm113.21-28.72V222.06h18.19v21.06Zm0,142.17V271.84h18.19V385.29ZM1507.07,270.4q9.57,0,17.71-.24t15.32.24a84.49,84.49,0,0,1,13.76,2,43.59,43.59,0,0,1,12.8,5.39,36.83,36.83,0,0,1,15.56,18.43q4.79,12,4.79,32.31,0,22.5-5.74,34.7a32.89,32.89,0,0,1-11.13,14q-7.06,4.91-18.55,7.06-5.51,1-14.6,1.68t-21.78.72q-12.21,0-21.06-.36T1478.59,385a88.27,88.27,0,0,1-11.37-2.27,38.5,38.5,0,0,1-8.5-3.47,34.3,34.3,0,0,1-16.4-18q-4.91-12-4.91-33.51,0-23.69,6.94-36.14,4.78-8.62,11-12.92a42,42,0,0,1,14-6.22,76.37,76.37,0,0,1,17.23-2Q1496.06,270.4,1507.07,270.4Zm2.87,15.8q-17.71,0-26.81,1.32t-14.36,4.67q-6.46,4.07-9.33,12.8T1456.57,329q0,17.23,3.83,25.85a22.61,22.61,0,0,0,13.16,12.21q9.81,3.83,40.21,3.83,19.39,0,28.6-1.44t14.48-5.27q6-4.31,8.5-12.69t2.51-23.69q0-17.47-4.07-26.33a23.69,23.69,0,0,0-8.62-9.93,34.27,34.27,0,0,0-12.21-4.43,83.63,83.63,0,0,0-15.32-1.08Q1519.27,286.2,1509.94,286.2ZM1604,385.29V271.84H1622v17h1.44a29.23,29.23,0,0,1,9.57-11.25,39.06,39.06,0,0,1,13-5.5,71.83,71.83,0,0,1,16-1.68H1697a96.06,96.06,0,0,1,14.72,1.08,53.06,53.06,0,0,1,12.8,3.59,33.19,33.19,0,0,1,10.89,7.78,29.85,29.85,0,0,1,7.3,13.88q2,8.38,2,24.41v64.14H1726.8V328.8q0-15.31-1.2-21.9a23.48,23.48,0,0,0-5-11.13q-4.79-5.26-14.12-7.42t-28-2.15q-20.82,0-32.43,3t-17.35,9.93a31.16,31.16,0,0,0-4.55,7.18,26.45,26.45,0,0,0-1.91,7.18,55.25,55.25,0,0,0-.36,8.38q.12,4.55.12,10.77v52.65Z" transform="translate(-98.54 -70.09)"/><polygon class="cls-1" points="1756.24 297.77 1694.09 200.93 1663.6 200.93 1663.6 315.19 1678.84 315.19 1678.84 215 1685.54 215 1750.05 315.19 1762.44 315.19 1826.28 215 1832.64 215 1832.64 315.19 1847.89 315.19 1847.89 200.93 1817.23 200.93 1756.24 297.77"/><polygon class="cls-1" points="1898.47 315.19 2010.56 315.19 2010.56 301.79 1913.72 301.79 1913.72 262.58 2006.54 262.58 2006.54 249.18 1913.72 249.18 1913.72 214.33 2010.56 214.33 2010.56 200.93 1898.47 200.93 1898.47 315.19"/><path class="cls-1" d="M2288.72,286.77A28.94,28.94,0,0,0,2269.29,273q-10.55-2-36.86-2h-78.91V385.29h80.08q23.29,0,32.67-1.68,19.43-3.35,25.13-22.12a83.9,83.9,0,0,0,2.76-14.66,175.6,175.6,0,0,0,.92-18.85q0-16.75-1.42-26.14T2288.72,286.77Zm-13.15,71.29q-3.94,9.8-13.32,12.15-4.36,1-7,1.42a33.55,33.55,0,0,1-5.36.42q-2.76,0-6.62-.08t-10.39-.08h-64.17V284.43h63.33q8,0,14.41-.08a87.56,87.56,0,0,1,11.31.5,31.07,31.07,0,0,1,8.63,2.18,15.78,15.78,0,0,1,6.2,4.77q6.87,8.71,6.87,35.52Q2279.51,348.26,2275.57,358.06Z" transform="translate(-98.54 -70.09)"/><rect class="cls-1" x="2244.96" y="200.93" width="15.25" height="114.26"/><path class="cls-1" d="M2488.26,271H2464l-64.84,114.26h17.26L2430,361.16h92.48l13.74,24.13h16.75Zm-50.93,76.73,36.19-63.33h6l35.69,63.33Z" transform="translate(-98.54 -70.09)"/><circle class="cls-2" cx="56.1" cy="36.07" r="36.07"/></svg>