<?xml version="1.0" encoding="utf-8"?>
<!-- Generator: Adobe Illustrator 23.0.1, SVG Export Plug-In . SVG Version: 6.00 Build 0)  -->
<svg version="1.1" id="Camada_1" xmlns="http://www.w3.org/2000/svg" xmlns:xlink="http://www.w3.org/1999/xlink" x="0px" y="0px"
	 viewBox="0 0 241.1 219.5" style="enable-background:new 0 0 241.1 219.5;" xml:space="preserve">
<style type="text/css">
	.st0{fill:#FFFFFF;}
</style>
<title>logo_lobo_white</title>
<g id="XMLID_142_">
	<g id="XMLID_161_">
		<path id="XMLID_220_" class="st0" d="M42.8,214.7c-1,0.3-1.7,0.4-2.7,0.4c-3.6,0-5.7-2.5-5.7-6.5c0-4,2.2-6.5,5.7-6.5
			c1,0,1.8,0.1,2.6,0.4l0.8,0.3c0.1,0.1,0.2,0.1,0.1,0.3l-0.6,2c-0.1,0.1-0.1,0.2-0.3,0.1l-0.8-0.3c-0.5-0.2-1-0.2-1.8-0.2
			c-1.8,0-2.9,1.4-2.9,3.9c0,2.5,1.1,3.9,2.9,3.9c0.7,0,1.2-0.1,1.8-0.3l0.8-0.2c0.1-0.1,0.3,0,0.3,0.1l0.7,1.9
			c0.1,0.1,0,0.2-0.1,0.3L42.8,214.7z"/>
		<path id="XMLID_218_" class="st0" d="M57.1,214.7c0,0.1-0.1,0.2-0.2,0.2h-2.4c-0.1,0-0.2-0.1-0.2-0.2v-5h-4.6v5
			c0,0.1-0.1,0.2-0.2,0.2H47c-0.1,0-0.2-0.1-0.2-0.2v-12.1c0-0.1,0.1-0.2,0.2-0.2h2.4c0.1,0,0.2,0.1,0.2,0.2v4.6h4.6v-4.6
			c0-0.1,0.1-0.2,0.2-0.2h2.4c0.1,0,0.2,0.1,0.2,0.2V214.7z"/>
		<path id="XMLID_216_" class="st0" d="M70.2,209.7c0,3.4-1.8,5.4-5,5.4c-3.1,0-5-1.9-5-5.4v-7.1c0-0.1,0.1-0.2,0.2-0.2h2.4
			c0.1,0,0.2,0.1,0.2,0.2v7.1c0,1.8,0.8,2.8,2.2,2.8c1.4,0,2.2-1,2.2-2.8v-7.1c0-0.1,0.1-0.2,0.2-0.2H70c0.1,0,0.2,0.1,0.2,0.2
			V209.7z"/>
		<path id="XMLID_213_" class="st0" d="M78.5,202.3c2.8,0,4.5,1.4,4.5,3.8c0,1.6-1,2.7-2.1,3.2c-0.2,0.1-0.2,0.2,0,0.3
			c0.8,0.5,1.2,1.3,1.5,1.9l1.2,3c0.1,0.2,0,0.3-0.2,0.3h-2.5c-0.1,0-0.2-0.1-0.3-0.2l-0.8-1.9c-0.6-1.5-1.2-2.4-3.2-2.4h-0.5v4.2
			c0,0.1-0.1,0.2-0.2,0.2h-2.4c-0.1,0-0.2-0.1-0.2-0.2v-12.1c0-0.1,0.1-0.2,0.2-0.2H78.5z M78.1,207.9c1.3,0,1.9-0.5,1.9-1.5
			c0-0.9-0.6-1.5-1.6-1.5h-2.3v3.1H78.1z"/>
		<path id="XMLID_210_" class="st0" d="M91.5,202.3c2.8,0,4.5,1.4,4.5,3.8c0,1.6-1,2.7-2.1,3.2c-0.3,0.1-0.2,0.2,0,0.3
			c0.8,0.5,1.2,1.3,1.5,1.9l1.2,3c0.1,0.2,0,0.3-0.2,0.3h-2.6c-0.1,0-0.2-0.1-0.3-0.2l-0.8-1.9c-0.6-1.5-1.2-2.4-3.2-2.4h-0.5v4.2
			c0,0.1-0.1,0.2-0.2,0.2h-2.4c-0.1,0-0.2-0.1-0.2-0.2v-12.1c0-0.1,0.1-0.2,0.2-0.2H91.5z M91.1,207.9c1.3,0,1.9-0.5,1.9-1.5
			c0-0.9-0.6-1.5-1.6-1.5h-2.3v3.1H91.1z"/>
		<path id="XMLID_207_" class="st0" d="M102.2,213.2l-0.5,1.5c0,0.1-0.1,0.2-0.3,0.2h-2.5c-0.2,0-0.2-0.1-0.2-0.3l2.5-6.8
			c0.7-1.8,1.2-3.5,1.7-5.3c0-0.1,0.1-0.2,0.3-0.2h3.3c0.1,0,0.2,0.1,0.3,0.2c0.4,1.8,1,3.5,1.7,5.3l2.5,6.8c0.1,0.2,0,0.3-0.2,0.3
			h-2.5c-0.1,0-0.2-0.1-0.3-0.2l-0.5-1.5H102.2z M106.3,210c-0.5-1.4-1.1-3.1-1.3-4.2c-0.1-0.2-0.3-0.2-0.3,0
			c-0.2,1.2-0.8,2.8-1.3,4.2l-0.3,0.7h3.4L106.3,210z"/>
		<path id="XMLID_205_" class="st0" d="M116.6,209.5c-2.4-0.9-3.3-1.8-3.3-3.7c0-2.3,1.8-3.6,4.6-3.6c1,0,2,0.2,2.8,0.5l1.2,0.4
			c0.2,0.1,0.2,0.1,0.2,0.3l-0.7,2c-0.1,0.1-0.1,0.2-0.3,0.1l-1-0.3c-0.7-0.2-1.4-0.4-2.1-0.4c-1,0-1.7,0.4-1.7,1.1
			c0,0.6,0.6,0.9,1.6,1.3l1.5,0.6c2.5,0.9,3.3,1.8,3.3,3.8c0,2.4-1.6,3.7-4.7,3.7c-1.1,0-2-0.1-3.5-0.6l-1.2-0.4
			c-0.2-0.1-0.2-0.1-0.2-0.3l0.7-2c0.1-0.1,0.1-0.2,0.3-0.1l1.2,0.4c1,0.3,1.8,0.4,2.6,0.4c1,0,1.8-0.2,1.8-1.2
			c0-0.5-0.6-0.9-1.6-1.3L116.6,209.5z"/>
		<path id="XMLID_204_" class="st0" d="M137.3,213.8c-2.2-0.7-3.1-0.6-4.9-0.7c-0.7,0-1-0.5-1.7-0.5c-1.7-0.1-2.8-1.5-2.8-3.9
			c0-2.5,1.1-3.9,2.8-3.9c1.7,0,2.7,1.4,2.7,3.9c0,1.1-0.4,3.8-2.7,3.9c-0.3,0,0.4,0.5,0.6,0.5c0.7,0.1,1.8,0.1,2.4,0.2
			c0.5,0.1,0.4,0.1,0.5,0.1c1.5-0.5,2.2-3.3,2.2-4.7c0-4-2.2-6.5-5.6-6.5c-3.5,0-5.7,2.5-5.7,6.5c0,4,2.2,6.5,5.7,6.5
			c1.8,0,4.2,0.4,5.4,0.9l0.3,0.1c0.1,0,0.3,0,0.3-0.1l0.8-1.9C137.5,214,137.4,213.8,137.3,213.8z"/>
		<path id="XMLID_202_" class="st0" d="M149.1,209.7c0,3.4-1.8,5.4-5,5.4c-3.2,0-5-1.9-5-5.4v-7.1c0-0.1,0.1-0.2,0.2-0.2h2.4
			c0.1,0,0.2,0.1,0.2,0.2v7.1c0,1.8,0.8,2.8,2.2,2.8c1.4,0,2.2-1,2.2-2.8v-7.1c0-0.1,0.1-0.2,0.2-0.2h2.4c0.1,0,0.2,0.1,0.2,0.2
			V209.7z"/>
		<path id="XMLID_200_" class="st0" d="M159.3,207.2c0.1,0,0.2,0.1,0.2,0.2v2c0,0.1-0.1,0.2-0.2,0.2H155v2.7h5.8
			c0.1,0,0.2,0.1,0.2,0.2v2c0,0.1-0.1,0.2-0.2,0.2h-8.4c-0.1,0-0.2-0.1-0.2-0.2v-12.1c0-0.1,0.1-0.2,0.2-0.2h8.5
			c0.2,0,0.2,0.1,0.2,0.3l-0.6,2.1c0,0.1-0.1,0.2-0.2,0.2H155v2.3H159.3z"/>
		<path id="XMLID_198_" class="st0" d="M166.8,214.7c0,0.1-0.1,0.2-0.2,0.2h-2.4c-0.1,0-0.2-0.1-0.2-0.2v-12.1
			c0-0.1,0.1-0.2,0.2-0.2h2.4c0.1,0,0.2,0.1,0.2,0.2V214.7z"/>
		<path id="XMLID_167_" class="st0" d="M175.2,202.3c2.8,0,4.5,1.4,4.5,3.8c0,1.6-1,2.7-2.1,3.2c-0.2,0.1-0.2,0.2,0,0.3
			c0.8,0.5,1.2,1.3,1.5,1.9l1.2,3c0.1,0.2,0,0.3-0.2,0.3h-2.5c-0.1,0-0.2-0.1-0.3-0.2l-0.8-1.9c-0.6-1.5-1.2-2.4-3.2-2.4h-0.5v4.2
			c0,0.1-0.1,0.2-0.2,0.2h-2.4c-0.1,0-0.2-0.1-0.2-0.2v-12.1c0-0.1,0.1-0.2,0.2-0.2H175.2z M174.8,207.9c1.3,0,2-0.5,2-1.5
			c0-0.9-0.6-1.5-1.6-1.5h-2.3v3.1H174.8z"/>
		<path id="XMLID_164_" class="st0" d="M185.9,213.2l-0.5,1.5c-0.1,0.1-0.1,0.2-0.3,0.2h-2.5c-0.2,0-0.2-0.1-0.2-0.3l2.5-6.8
			c0.7-1.8,1.2-3.5,1.7-5.3c0-0.1,0.1-0.2,0.3-0.2h3.3c0.1,0,0.2,0.1,0.3,0.2c0.4,1.8,1,3.5,1.7,5.3l2.5,6.8c0.1,0.2,0,0.3-0.2,0.3
			h-2.5c-0.1,0-0.2-0.1-0.3-0.2l-0.5-1.5H185.9z M189.9,210c-0.5-1.4-1.1-3.1-1.3-4.2c-0.1-0.2-0.3-0.2-0.3,0
			c-0.2,1.2-0.8,2.8-1.3,4.2l-0.2,0.7h3.4L189.9,210z"/>
		<path id="XMLID_162_" class="st0" d="M200.3,209.5c-2.4-0.9-3.3-1.8-3.3-3.7c0-2.3,1.8-3.6,4.6-3.6c1,0,2,0.2,2.8,0.5l1.2,0.4
			c0.2,0.1,0.2,0.1,0.2,0.3l-0.7,2c-0.1,0.1-0.1,0.2-0.3,0.1l-1-0.3c-0.7-0.2-1.4-0.4-2.1-0.4c-1,0-1.7,0.4-1.7,1.1
			c0,0.6,0.5,0.9,1.6,1.3l1.5,0.6c2.5,0.9,3.3,1.8,3.3,3.8c0,2.4-1.6,3.7-4.7,3.7c-1.1,0-2-0.1-3.5-0.6l-1.2-0.4
			c-0.2-0.1-0.2-0.1-0.2-0.3l0.7-2c0.1-0.1,0.1-0.2,0.3-0.1l1.2,0.4c1,0.3,1.8,0.4,2.6,0.4c1,0,1.8-0.2,1.8-1.2
			c0-0.5-0.6-0.9-1.6-1.3L200.3,209.5z"/>
	</g>
	<g id="XMLID_152_">
		<path id="XMLID_160_" class="st0" d="M121.3,3.4c-29.7,0-53.8,24.1-53.8,53.8c0,12.8,4.5,24.6,12,33.8c1.6-0.6,3.3-1.3,4.8-2.3
			C77,80.2,72.6,69.2,72.6,57.2c0-26.8,21.8-48.7,48.7-48.7c26.8,0,48.7,21.8,48.7,48.7c0,11.5-4,22-10.7,30.4
			c0.8,0.5,1.5,1.1,2.1,1.8c0.4,0.5,0.6,1,0.8,1.6c0.1,0.2,0.1,0.6,0.3,0.9c7.9-9.4,12.7-21.5,12.7-34.7
			C175.1,27.5,151,3.4,121.3,3.4z"/>
		<path id="XMLID_153_" class="st0" d="M171.3,96.4c-1.7-0.6-3.4,0-4.2,0c-1,0-2-0.5-2.8-0.9c-1.7-0.8-3.4,1.8-4.8-3.4
			c-0.3-1.1-1.8-2-2.4-2.3c-0.3-0.2-0.6-0.3-0.8-0.5c-0.4-0.4-0.8-1.2-1.3-1.7c-4.6-0.5-10.6-0.8-12.2-0.5
			c-2.6,0.4-9.5,2.1-12.1,1.5c-0.3-0.1,0.9,0,4.6-1.4c1.7-0.6,3.5-0.6,5.2-1.1c1.4-0.4,2.6-0.7,4-0.7c0.8,0,3.9-0.9,4.7-1
			c-0.6-1.2-3.7-2.4-4.2-2.5c-3.3-1.2-1.7-4.5-4.1-6.1c-1.7-1.1-3.1-1.6-5.1-1.8c-0.6,0-2.7,0.2-2.7,0.2c-0.8-2.9-1.5-3.4,0.4-8.3
			c1.4-3.7,0.8-4.5,1.8-5.8c3.4-4.6,4.2-8.6,4.1-12c-0.1-2-0.3-5.9-0.4-7.2c-0.2-4.6,1-6.1,1.6-7.2c0.6-1.1,1.2-1.8,1.6-2.4
			c0.3-0.6-0.1-1.1-0.3-1.2c-0.2-0.1-0.6,0.3-1.1,0.7c-0.5,0.4-0.9,0.6-1.1,0.6c-0.2,0-0.2-0.3,0-1.1c0.6-2.1-0.2-3.3-1.3-4.5
			c-0.2-0.2-0.7-0.2-0.8,0c-0.1,0.2-0.4,0.7-0.5,0.8c-0.4,0.9-1.4,2.2-2,3.1c-0.6,0.8-1.2,0.4-2.4,1.3c-1.1,0.8-1.7,2.5-1.8,2.7
			c-0.1,0.2-0.7,1.3-2,2c-0.8,0.5-1.5,0.9-1.6,1.3c-0.2,0.8,2.5,0.7,2.5,0.7s-1.7,4.3-5.5,7.6c-1.6,1.4-2.3,1.9-3.4,2.9
			c-1.1,1-4.7,4.2-7.4,4.8c-0.5,0.1-4.9,1-7.4,2.2c-3.8,1.8-5.1,7.5-9.5,12.5c-2.5,2.9-6.7,4.5-10.1,2.9c0,7.4,9.2,7.7,12.8,0.3
			c0.1-0.2,0.1,0.9-0.1,1.5c2.4-1.1,4-6.4,4-6.4s-0.2,2-0.1,3.1c0.2,1.2-3.1,5.1-3.1,5.1c-0.3,0.4-0.6,0.9-0.6,2
			c0,0.5-0.2,3-0.5,4.5c-0.2,1,0.4,2.2,0.3,3.2l-4.7,2.1c-5.4,2.6-4.4,5.1-20.3,10.6c-3,1-6.1,3.6-3.7,3.6c9.2,0,14.4,0,23.5,0
			c18.4,0,32.8,0,51.2,0c12,0,16,0,28-0.1C175.1,99.8,173.7,97.2,171.3,96.4z M126.3,72.6c0.1-1.4,0.2-1.5,0.7-2.6
			c0.5-1.1,2.9-4.9,2.9-4.9s0.2,4.2-0.1,5.2c-0.2,0.9,0.9,2.2,0.9,4.3c0,0-3.5,0.7-4.4,0.8C126.3,74.5,126.2,73.3,126.3,72.6z
			 M108.3,74.9c0.4-1.3,1.7-1.6,2.7-2.1c0.8-0.4,2.8-1.3,4-4.1c1-2.2,0.4-4.9,2.7-4.6c2.8,0.5,5.2-0.4,7-0.8
			c0.5-0.1,0.6,0.2,0.5,1.6c0,0.7-0.3,2.3-0.6,2.8c-0.2,0.6-0.7,1.7-1,2.3c-0.3,0.6,0,1.2,0,2.2l0.1,3.6c-4.1,1.5-14.3,4.1-14.9,4.3
			c-0.6,0.1-0.9-1.5-1-2C107.8,77,107.9,76.2,108.3,74.9z M106,81c-1.3,0.4-2.7,0.7-4.4,1.4c0,0-0.5-1.1-0.5-1.8
			c0.1-2.4,0.4-4.4,0.7-5c0.5-1.2,3.5-2.7,5.4-4.9c-0.3,1-0.1,1.1-1.7,3.5C104.7,75.3,105.6,75.4,106,81z M115.6,85.8
			c-0.4,0.1-0.8,0.5-1.3,0.5c-1,0-1.8,0.2-2.8,0.5c-0.9,0.3-4.2,0.7-3.9,0.5c0.9-0.9,2.5-1.1,3.7-1.6c1.4-0.7,3.1-0.8,4.5-0.7
			C116.2,84.9,116,85.7,115.6,85.8z M123.9,83.9c-1,0.3-1.9,0-1.3-0.2c1.6-0.5,3-1.2,4.7-1.5c1.4-0.3,5.3-1.4,6-1.4
			c1.2,0,4.2-1.7,5.4-1.7c0.7,0,2,0.8,1.7,1c-0.8,0.7-5.5,2-6.5,2.1c-2,0.2-3.7,1-5.7,1.2C126.8,83.5,125.3,83.5,123.9,83.9z"/>
	</g>
	<path id="XMLID_143_" class="st0" d="M159.9,151.8c3.1-1.3,8.5-6.3,8.5-13.7c0-9.1-7.5-15.1-19.3-15.1h-33.8
		c-1.8,0-2.6,1.3-2.5,2.7c0.2,3.1,0.9,9.1,1.2,10.1c0.2,1.1,0.8,1.9,2.5,1.9h4.6c0,0-3.9,1.3-3.9,6.1v38.3c0,1.8,1.1,2.9,2.9,2.9
		h28.4c9.7,0,21.8-5.2,21.8-18.8C170.4,156.6,163.9,152.3,159.9,151.8L159.9,151.8z M136.9,137.7c0,0,5.1-0.2,6.8,0
		c2.3,0.3,4,2.1,4,4.3c0,2.4-1.4,4.1-3.8,4.4c-1.5,0.2-3.1,0.2-4.6,0.1c-1.4-0.1-2.3-1.1-2.3-2.5V137.7z M145.3,170.2
		c-1.8,0.2-3.9,0.1-5.4,0c-1.9-0.1-2.9-1.3-2.9-2.9v-6.8c0,0,5.7-0.3,8.6,0c2.8,0.3,4.2,2,4.2,4.9C149.7,168,148,169.9,145.3,170.2
		L145.3,170.2z M4.5,123c-1.8,0-2.6,1.3-2.5,2.7c0.2,3.1,0.9,9.1,1.2,10.1c0.2,1.1,0.8,1.9,2.5,1.9h4.7c-2.5,1-3.9,3.3-3.9,6.4v37.9
		c0,1.8,1.1,2.9,2.9,2.9h34.5c2.5,0,3.9-2,3.5-3.9c-0.9-4.4-1.7-8.9-2.5-12c-0.4-1.9-1.9-2.8-3.7-2.8H26v-40.4
		c0-1.8-1.1-2.9-2.9-2.9H4.5z M45.7,154c0,19.6,14.9,32.1,32.7,32.1c17.8,0,32.6-12.5,32.6-32.1c0-19.6-14.8-32.1-32.6-32.1
		C60.6,121.9,45.7,134.4,45.7,154L45.7,154z M65.5,153.9c0-7.4,5.4-13.3,12.7-13.3s12.7,6,12.7,13.3s-5.4,13.5-12.7,13.5
		S65.5,161.3,65.5,153.9L65.5,153.9z M173.5,154c0,19.6,14.9,32.1,32.7,32.1c17.8,0,32.6-12.5,32.6-32.1c0-19.6-14.8-32.1-32.6-32.1
		C188.4,121.9,173.5,134.4,173.5,154L173.5,154z M193.4,153.9c0-7.4,5.4-13.3,12.7-13.3c7.4,0,12.7,6,12.7,13.3s-5.4,13.5-12.7,13.5
		C198.8,167.4,193.4,161.3,193.4,153.9z"/>
</g>
</svg>
